<svg xmlns="http://www.w3.org/2000/svg" width="568.327" height="491.218" viewBox="0 0 568.327 491.218">
  <path id="ic_confirmation_number_24px" d="M570.327,188.207V65.4c0-34.078-25.575-61.4-56.833-61.4H58.833C27.575,4,2.284,31.324,2.284,65.4v122.8c31.258,0,56.548,27.631,56.548,61.4S33.542,311.011,2,311.011v122.8c0,33.771,25.575,61.4,56.833,61.4H513.494c31.258,0,56.833-27.631,56.833-61.4v-122.8c-31.258,0-56.833-27.631-56.833-61.4S539.069,188.207,570.327,188.207ZM314.58,418.465H257.747v-61.4H314.58Zm0-138.155H257.747v-61.4H314.58Zm0-138.155H257.747v-61.4H314.58Z" transform="translate(-2 -4)" fill="#0363e1"/>
</svg>
